<svg xmlns="http://www.w3.org/2000/svg" width="80" height="80" viewBox="0 0 80 80">
  <g id="Group_1103053" data-name="Group 1103053" transform="translate(-199.711 -651)">
    <rect id="Rectangle_403232" data-name="Rectangle 403232" width="80" height="80" rx="10" transform="translate(199.711 651)" fill="#6018ec"/>
    <g id="Group_1103052" data-name="Group 1103052" transform="translate(211.188 596.339)">
      <g id="Group_1103050" data-name="Group 1103050" transform="translate(0.836 75.83)">
        <g id="Group_1103049" data-name="Group 1103049">
          <path id="Path_879309" data-name="Path 879309" d="M37.617,84.165v30.016l46.546,2.228V84.165a1.671,1.671,0,0,0-1.671-1.671h-43.2a1.671,1.671,0,0,0-1.671,1.671Z" transform="translate(-34.261 -82.494)" fill="#80b6fc"/>
          <path id="Path_879310" data-name="Path 879310" d="M432.725,82.494h-3.342a1.671,1.671,0,0,1,1.671,1.671V116.41l3.342-2.228V84.165A1.671,1.671,0,0,0,432.725,82.494Z" transform="translate(-382.379 -82.494)" fill="#62a4fb"/>
          <path id="Path_879311" data-name="Path 879311" d="M188.874,120.036a8.611,8.611,0,0,0-1.281-.014,8.419,8.419,0,0,0-7.135,8.32v12.316l16.61,1.114v-13.43A8.135,8.135,0,0,0,188.874,120.036Z" transform="translate(-161.187 -115.818)" fill="#fd8087"/>
          <path id="Path_879312" data-name="Path 879312" d="M245.781,119.351a8.478,8.478,0,0,0-1.281.1,8.419,8.419,0,0,1,7.135,8.32v14.545l2.563-2.228V127.768A8.417,8.417,0,0,0,245.781,119.351Z" transform="translate(-218.094 -115.245)" fill="#fd4755"/>
          <circle id="Ellipse_11678" data-name="Ellipse 11678" cx="1.5" cy="1.5" r="1.5" transform="translate(26.06 21.858) rotate(-84.78)" fill="#f7f9fa"/>
          <g id="Group_1103047" data-name="Group 1103047" transform="translate(26.218 6.94)">
            <g id="Group_1103046" data-name="Group 1103046">
              <g id="Group_1103045" data-name="Group 1103045">
                <path id="Path_879313" data-name="Path 879313" d="M244.3,154.3a1.484,1.484,0,0,1-1.484-1.484v-6.55a1.484,1.484,0,1,1,2.969,0v6.55A1.484,1.484,0,0,1,244.3,154.3Z" transform="translate(-242.813 -144.782)" fill="#f7f9fa"/>
              </g>
            </g>
          </g>
          <path id="Path_879314" data-name="Path 879314" d="M165.239,305.436H148.452a2.785,2.785,0,0,0-2.785,2.785v4.062l22.357,2.228v-6.291A2.785,2.785,0,0,0,165.239,305.436Z" transform="translate(-130.273 -280.597)" fill="#7e8b96"/>
          <path id="Path_879315" data-name="Path 879315" d="M314.675,305.436h-3.342a2.785,2.785,0,0,1,2.785,2.785v6.291l3.342-2.228v-4.062A2.785,2.785,0,0,0,314.675,305.436Z" transform="translate(-277.481 -280.597)" fill="#4e5a61"/>
          <path id="Path_879316" data-name="Path 879316" d="M58.974,373.874H10.285A2.785,2.785,0,0,1,7.5,371.089v-3.076A1.114,1.114,0,0,1,8.614,366.9H28.629l6.953,1.114,6.162-1.114h18.9a1.114,1.114,0,0,1,1.114,1.114v3.076A2.785,2.785,0,0,1,58.974,373.874Z" transform="translate(-7.5 -335.212)" fill="#f7f9fa"/>
          <g id="Group_1103048" data-name="Group 1103048" transform="translate(21.129 31.687)">
            <path id="Path_879317" data-name="Path 879317" d="M454.514,366.9h-3.342a1.114,1.114,0,0,1,1.114,1.114v3.076a2.785,2.785,0,0,1-2.785,2.785h3.342a2.785,2.785,0,0,0,2.785-2.785v-3.076A1.114,1.114,0,0,0,454.514,366.9Z" transform="translate(-421.383 -366.899)" fill="#e9edf1"/>
            <path id="Path_879318" data-name="Path 879318" d="M209.143,370.386H198.255a1.114,1.114,0,0,1-1.114-1.114V366.9h13.116v2.374a1.114,1.114,0,0,1-1.114,1.114Z" transform="translate(-197.141 -366.898)" fill="#e9edf1"/>
          </g>
        </g>
      </g>
      <g id="Group_1103051" data-name="Group 1103051" transform="translate(0 74.994)">
        <path id="Path_879319" data-name="Path 879319" d="M114.779,113.47a.836.836,0,0,0,.591-1.426l-2.755-2.755a.836.836,0,1,0-1.182,1.182l2.755,2.755A.833.833,0,0,0,114.779,113.47Z" transform="translate(-98.8 -105.251)"/>
        <path id="Path_879320" data-name="Path 879320" d="M86.734,183.645a.836.836,0,0,0,.836.836h4.1a.836.836,0,0,0,0-1.671h-4.1A.836.836,0,0,0,86.734,183.645Z" transform="translate(-77.07 -170.797)"/>
        <path id="Path_879321" data-name="Path 879321" d="M364.085,109.289l-2.755,2.755a.836.836,0,0,0,1.182,1.182l2.755-2.755a.836.836,0,1,0-1.182-1.182Z" transform="translate(-320.855 -105.251)"/>
        <path id="Path_879322" data-name="Path 879322" d="M373.449,183.645a.836.836,0,0,0,.836.836h4.1a.836.836,0,0,0,0-1.671h-4.1A.836.836,0,0,0,373.449,183.645Z" transform="translate(-331.841 -170.797)"/>
        <path id="Path_879323" data-name="Path 879323" d="M237.376,250.258a2.335,2.335,0,1,0-2.335-2.335A2.338,2.338,0,0,0,237.376,250.258Zm0-3a.664.664,0,1,1-.664.664A.665.665,0,0,1,237.376,247.259Z" transform="translate(-208.854 -226.581)"/>
        <path id="Path_879324" data-name="Path 879324" d="M237.633,148.472a2.323,2.323,0,0,0,2.32-2.32V139.6a2.32,2.32,0,1,0-4.64,0v6.55A2.323,2.323,0,0,0,237.633,148.472Zm-.649-8.87a.649.649,0,1,1,1.3,0v6.55a.649.649,0,1,1-1.3,0Z" transform="translate(-209.095 -130.342)"/>
        <path id="Path_879325" data-name="Path 879325" d="M21.129,108.352v1.538a1.952,1.952,0,0,0,1.95,1.95H33.966a1.952,1.952,0,0,0,1.95-1.95v-1.538H55.1a.279.279,0,0,1,.279.279v3.076a1.952,1.952,0,0,1-1.95,1.95H45.143a.836.836,0,1,0,0,1.671h8.281a3.625,3.625,0,0,0,3.621-3.621v-3.076a1.952,1.952,0,0,0-1.95-1.95H53.689V77.5a2.51,2.51,0,0,0-2.507-2.507H5.862A2.51,2.51,0,0,0,3.356,77.5v29.18H1.95A1.952,1.952,0,0,0,0,108.631v3.076a3.625,3.625,0,0,0,3.621,3.621H41.5a.836.836,0,1,0,0-1.671H3.621a1.952,1.952,0,0,1-1.95-1.95v-3.076a.279.279,0,0,1,.279-.279h6.67a.836.836,0,0,0,0-1.671H5.027V77.5a.837.837,0,0,1,.836-.836h45.32a.837.837,0,0,1,.836.836v29.18H41.651v-3.227a3.625,3.625,0,0,0-3.621-3.621h-.255V88.353a9.252,9.252,0,0,0-18.5,0v3.361a.836.836,0,0,0,1.671,0V88.353a7.581,7.581,0,0,1,15.162,0V99.833H20.941V95.356a.836.836,0,0,0-1.671,0v4.478h-.255a3.625,3.625,0,0,0-3.621,3.621v3.227H12.261a.836.836,0,0,0,0,1.671Zm13.116,1.538a.279.279,0,0,1-.279.279H23.079a.279.279,0,0,1-.279-.279v-1.538H34.245Zm-17.179-3.209v-3.227a1.952,1.952,0,0,1,1.95-1.95H38.03a1.952,1.952,0,0,1,1.95,1.95v3.227Z" transform="translate(0 -74.994)"/>
      </g>
    </g>
  </g>
</svg>
