<svg xmlns="http://www.w3.org/2000/svg" width="100" height="100" viewBox="0 0 100 100">
  <g id="Group_1100965" data-name="Group 1100965" transform="translate(0.242)">
    <g id="Group_1098742" data-name="Group 1098742" transform="translate(0)">
      <rect id="Rectangle_400898" data-name="Rectangle 400898" width="100" height="100" rx="50" transform="translate(-0.242)" fill="#fff" opacity="0.859"/>
      <g id="Rectangle_400907" data-name="Rectangle 400907" transform="translate(-0.242)" fill="none" stroke="#6018ec" stroke-linecap="round" stroke-width="2" stroke-dasharray="7">
        <rect width="100" height="100" rx="50" stroke="none"/>
        <rect x="1" y="1" width="98" height="98" rx="49" fill="none"/>
      </g>
    </g>
    <g id="Group_1103099" data-name="Group 1103099" transform="translate(19.758 19.627)">
      <circle id="Ellipse_11681" data-name="Ellipse 11681" cx="29.11" cy="29.11" r="29.11" transform="translate(0.872 1.224)" fill="#c8effe"/>
      <path id="Path_879410" data-name="Path 879410" d="M242.7,7.271c-.59,0-1.176.02-1.757.054a29.108,29.108,0,0,1,0,58.111c.581.035,1.167.054,1.757.054a29.11,29.11,0,0,0,0-58.22Z" transform="translate(-212.72 -6.047)" fill="#99e6fc"/>
      <path id="Path_879411" data-name="Path 879411" d="M154.482,144.914l1.926,3.886a3.026,3.026,0,0,0,2.279,1.649l4.308.623a3.011,3.011,0,0,1,1.678,5.141l-3.117,3.025a3.006,3.006,0,0,0-.871,2.668l.736,4.272a3.024,3.024,0,0,1-4.392,3.177l-3.853-2.017a3.039,3.039,0,0,0-2.817,0l-3.853,2.017a3.024,3.024,0,0,1-4.392-3.177l.736-4.272a3.006,3.006,0,0,0-.871-2.668l-3.117-3.025a3.011,3.011,0,0,1,1.678-5.141l4.308-.623a3.026,3.026,0,0,0,2.279-1.649l1.926-3.886A3.033,3.033,0,0,1,154.482,144.914Z" transform="translate(-121.785 -126.082)" fill="#ffd15b"/>
      <g id="Group_1103098" data-name="Group 1103098" transform="translate(27.834 17.152)">
        <path id="Path_879412" data-name="Path 879412" d="M250.985,151.079l-4.308-.623a3.026,3.026,0,0,1-2.279-1.649l-1.926-3.886a3.038,3.038,0,0,0-4.862-.795,2.976,2.976,0,0,1,1.348,1.362l1.926,3.886a3.026,3.026,0,0,0,2.279,1.649l4.308.623a3.011,3.011,0,0,1,1.678,5.141l-3.117,3.025a3.006,3.006,0,0,0-.871,2.668l.736,4.272a2.956,2.956,0,0,1-.835,2.631,3.023,3.023,0,0,0,4.349-3.2l-.736-4.272a3.006,3.006,0,0,1,.871-2.668l3.117-3.025a3.011,3.011,0,0,0-1.678-5.141Z" transform="translate(-237.609 -143.242)" fill="#ffc344"/>
      </g>
      <path id="Path_879413" data-name="Path 879413" d="M55.847,15.149a.879.879,0,0,0-1.514.891A28.194,28.194,0,0,1,58.2,29.456H50.965a38.723,38.723,0,0,0-4.08-16.937c1.394-.359,2.714-.765,3.947-1.215q.658.723,1.274,1.494A.879.879,0,1,0,53.483,11.7C42.971-2.2,20.81-3.475,8.777,9.13-10.037,27.878,3.417,60.371,29.982,60.323c23.007.156,37.612-25.425,25.865-45.173ZM50.8,49.379c-1.228-.448-2.542-.851-3.929-1.207a38.709,38.709,0,0,0,4.092-16.959H58.2a28.122,28.122,0,0,1-7.4,18.166Zm-41.637.005a28.122,28.122,0,0,1-7.4-18.171H9a38.71,38.71,0,0,0,4.094,16.963c-1.386.357-2.7.76-3.927,1.208ZM9.149,11.3c1.229.449,2.544.853,3.932,1.211A38.721,38.721,0,0,0,9,29.456H1.766A28.121,28.121,0,0,1,9.149,11.3ZM35.643,7.555a18.838,18.838,0,0,0-2.282-5.016C37.621,3.652,41.4,6.83,44.2,11.341a63.4,63.4,0,0,1-7.33,1.069A46.1,46.1,0,0,0,35.643,7.555Zm-1.674.533a43.873,43.873,0,0,1,1.139,4.458,79.949,79.949,0,0,1-10.25,0C26.34,5.276,29.994-4.2,33.969,8.088Zm2.52,15.257a2.142,2.142,0,0,1-1.079-1.017l-1.926-3.887a3.923,3.923,0,0,0-7,0l-1.926,3.886a2.142,2.142,0,0,1-1.079,1.017,85.039,85.039,0,0,1,1.052-9.062,81.176,81.176,0,0,0,10.91,0,85.087,85.087,0,0,1,1.052,9.061ZM24.326,7.54a46.034,46.034,0,0,0-1.233,4.868,63.351,63.351,0,0,1-7.328-1.07c2.8-4.509,6.579-7.686,10.839-8.8a18.813,18.813,0,0,0-2.277,5Zm-1.557,6.6a87.812,87.812,0,0,0-1.076,9.535l-3.065.444a3.911,3.911,0,0,0-3.052,5.335h-4.82a36.918,36.918,0,0,1,4.087-16.52,64.316,64.316,0,0,0,7.926,1.207ZM10.756,31.213H16.93l2.652,2.574a2.119,2.119,0,0,1,.638,1.726.879.879,0,1,0,1.749.165,3.867,3.867,0,0,0-1.164-3.152L17.689,29.5a2.132,2.132,0,0,1,1.191-3.641l4.308-.623a3.9,3.9,0,0,0,2.941-2.128l1.926-3.886a2.154,2.154,0,0,1,3.855,0l1.926,3.887a3.9,3.9,0,0,0,2.941,2.128l4.308.623A2.132,2.132,0,0,1,42.275,29.5l-3.117,3.025a3.884,3.884,0,0,0-1.125,3.447l.736,4.272a2.091,2.091,0,0,1-.847,2.083,2.118,2.118,0,0,1-2.272.167L31.8,40.477a3.917,3.917,0,0,0-3.632,0l-3.853,2.017a2.118,2.118,0,0,1-2.272-.167,2.09,2.09,0,0,1-.847-2.082l.079-.458a.879.879,0,1,0-1.731-.3l-.079.458A3.911,3.911,0,0,0,22.431,44.4c.092.639.2,1.367.342,2.151a64.366,64.366,0,0,0-7.918,1.205,36.913,36.913,0,0,1-4.1-16.543Zm13.45,13.181a48.174,48.174,0,0,0,4.774-2.36,2.159,2.159,0,0,1,2,0A48.71,48.71,0,0,0,35.757,44.4q-.153,1.047-.322,2.014a81.116,81.116,0,0,0-10.906,0q-.169-.967-.323-2.016ZM23.1,48.285c.7,3.438,1.811,7.431,3.5,9.844-4.253-1.11-8.026-4.279-10.825-8.776A63.44,63.44,0,0,1,23.1,48.285Zm1.759-.136a79.849,79.849,0,0,1,10.246,0C32.022,62.031,27.945,62.035,24.859,48.148Zm12.005.135a63.458,63.458,0,0,1,7.323,1.066c-2.8,4.5-6.572,7.668-10.825,8.779C35.053,55.718,36.168,51.729,36.865,48.283Zm.326-1.734c.136-.781.249-1.508.341-2.149A3.912,3.912,0,0,0,40.5,39.946l-.736-4.272a2.127,2.127,0,0,1,.617-1.888l2.652-2.574h6.174a36.908,36.908,0,0,1-4.1,16.539,64.431,64.431,0,0,0-7.92-1.2ZM49.208,29.456h-4.82a3.911,3.911,0,0,0-3.052-5.335l-3.065-.443A87.811,87.811,0,0,0,37.2,14.144a64.322,64.322,0,0,0,7.927-1.205A36.919,36.919,0,0,1,49.208,29.456Zm.274-19.539c-1.1.373-2.259.712-3.478,1.013a24.988,24.988,0,0,0-6.058-7.023A28.041,28.041,0,0,1,49.482,9.917ZM15.036,9.251q-.561.812-1.074,1.675c-1.213-.3-2.369-.637-3.459-1.008a28.292,28.292,0,0,1,9.48-5.984A23.72,23.72,0,0,0,15.036,9.251ZM10.523,50.769c1.088-.37,2.243-.705,3.453-1a25,25,0,0,0,6.009,6.971A28.3,28.3,0,0,1,10.523,50.769Zm34.405.648q.556-.8,1.063-1.657c1.211.3,2.366.634,3.455,1a28.294,28.294,0,0,1-9.466,5.97A23.715,23.715,0,0,0,44.928,51.417Z" transform="translate(0 0)"/>
    </g>
  </g>
</svg>
