<svg xmlns="http://www.w3.org/2000/svg" width="100" height="100" viewBox="0 0 100 100">
  <g id="Group_1100965" data-name="Group 1100965" transform="translate(0.242)">
    <g id="Group_1098742" data-name="Group 1098742" transform="translate(0)">
      <rect id="Rectangle_400898" data-name="Rectangle 400898" width="100" height="100" rx="50" transform="translate(-0.242)" fill="#fff" opacity="0.859"/>
      <g id="Rectangle_400907" data-name="Rectangle 400907" transform="translate(-0.242)" fill="none" stroke="#6018ec" stroke-linecap="round" stroke-width="2" stroke-dasharray="7">
        <rect width="100" height="100" rx="50" stroke="none"/>
        <rect x="1" y="1" width="98" height="98" rx="49" fill="none"/>
      </g>
    </g>
    <g id="Group_1103120" data-name="Group 1103120" transform="translate(19.758 19.741)">
      <circle id="Ellipse_11695" data-name="Ellipse 11695" cx="22.944" cy="22.944" r="22.944" transform="translate(13.169 1.172)" fill="#c8effe"/>
      <path id="Path_879509" data-name="Path 879509" d="M295.256,7.8q-.886,0-1.756.066a22.945,22.945,0,0,1,0,45.755q.869.066,1.756.066a22.944,22.944,0,1,0,0-45.888Z" transform="translate(-259.143 -6.626)" fill="#99e6fc"/>
      <circle id="Ellipse_11696" data-name="Ellipse 11696" cx="8.428" cy="8.428" r="8.428" transform="translate(27.685 15.687)" fill="#fe646f"/>
      <circle id="Ellipse_11697" data-name="Ellipse 11697" cx="3.512" cy="3.512" r="3.512" transform="translate(32.602 20.604)" fill="#eef5f6"/>
      <path id="Path_879510" data-name="Path 879510" d="M12.74,421.841,12,418.91a1.749,1.749,0,0,0-1.27-1.27L7.8,416.9a.4.4,0,0,1-.173-.683l4.4-4.032a3.813,3.813,0,0,1,2.578-1h3.511a.344.344,0,0,1,.344.344v3.511a3.814,3.814,0,0,1-1,2.578l-4.032,4.4A.4.4,0,0,1,12.74,421.841Z" transform="translate(-6.622 -362.793)" fill="#ffd15b"/>
      <g id="Group_1103119" data-name="Group 1103119" transform="translate(0 0.293)">
        <path id="Path_879511" data-name="Path 879511" d="M150.125,13.249a.878.878,0,0,0-1.562.8,21.78,21.78,0,0,1,2.4,9.186H145.64a30.747,30.747,0,0,0-3.127-13.043c.979-.258,1.912-.546,2.789-.863q.607.675,1.166,1.4a.878.878,0,0,0,1.4-1.066A23.838,23.838,0,0,0,128.92.294C108.2.226,97.4,25.4,111.475,40.319l-2.014,2.014a.878.878,0,0,0,1.242,1.242l2.014-2.014c19.637,17.766,49.163-4.41,37.408-28.311Zm-4.847,25.66c-.873-.314-1.8-.6-2.773-.856a30.74,30.74,0,0,0,3.135-13.06h5.327A21.98,21.98,0,0,1,145.278,38.91Zm-32.712,0a21.979,21.979,0,0,1-5.693-13.92H112.2a31.216,31.216,0,0,0,2.619,11.981l-1.771,1.771Q112.805,38.828,112.566,38.914Zm-.013-29.582c.874.315,1.8.6,2.776.859A30.744,30.744,0,0,0,112.2,23.238h-5.327A21.978,21.978,0,0,1,112.553,9.332Zm27.278-.314a49.946,49.946,0,0,1-5.329.77,23.37,23.37,0,0,0-2.5-7.267A14.827,14.827,0,0,1,139.831,9.018Zm-8.1-2.843a32.323,32.323,0,0,1,1,3.749,62.736,62.736,0,0,1-7.627,0c.457-2.567,2.153-7.892,3.814-7.873.679,0,1.775,1.084,2.812,4.125ZM119.657,24.994a9.265,9.265,0,0,0,2.095,5.049l-5.6,5.6a29.839,29.839,0,0,1-2.2-10.646Zm9.264,6.672a7.512,7.512,0,0,1-4.678-1.631l2.259-2.259a4.389,4.389,0,1,0-1.242-1.242L123,28.794a7.572,7.572,0,0,1,5.92-12.229C138.923,16.944,138.921,31.288,128.92,31.666Zm4.74.454c-.155,1.57-.357,3.07-.6,4.469a64.325,64.325,0,0,0-8.283,0c-.242-1.4-.443-2.9-.6-4.47A9.365,9.365,0,0,0,133.66,32.12Zm-7.373-8a2.634,2.634,0,1,1,1.5,2.376l1.635-1.635a.878.878,0,0,0-1.242-1.242l-1.635,1.635A2.617,2.617,0,0,1,126.286,24.116Zm2.634-9.306a9.247,9.247,0,0,0-4.74,1.3c.155-1.563.355-3.057.6-4.45a64.41,64.41,0,0,0,8.289,0c.24,1.393.44,2.886.595,4.449a9.248,9.248,0,0,0-4.74-1.3ZM125.836,2.521a23.362,23.362,0,0,0-2.5,7.265,49.94,49.94,0,0,1-5.327-.772A14.825,14.825,0,0,1,125.836,2.521Zm-2.819,9c-.331,1.966-.572,4.036-.728,6.076a9.279,9.279,0,0,0-2.632,5.642h-5.7a28.933,28.933,0,0,1,3.127-12.625A50.877,50.877,0,0,0,123.016,11.519Zm-6.078,25.82,5.455-5.455c.153,1.637.36,3.276.626,4.848a50.859,50.859,0,0,0-5.926.9C117.041,37.538,116.99,37.439,116.939,37.339Zm6.4,1.125a23.328,23.328,0,0,0,2.493,7.246,14.816,14.816,0,0,1-7.813-6.476,49.964,49.964,0,0,1,5.32-.77Zm2.765,3.593a32.289,32.289,0,0,1-1-3.729,62.7,62.7,0,0,1,7.619,0c-.458,2.564-2.153,7.876-3.81,7.854C128.241,46.182,127.146,45.1,126.108,42.057Zm5.9,3.653a23.333,23.333,0,0,0,2.494-7.248,50.005,50.005,0,0,1,5.322.769A14.818,14.818,0,0,1,132.005,45.71Zm2.816-8.98c.333-1.971.575-4.048.731-6.094a9.279,9.279,0,0,0,2.632-5.642h5.7a28.925,28.925,0,0,1-3.135,12.64A50.952,50.952,0,0,0,134.821,36.73Zm9.062-13.492h-5.7a9.279,9.279,0,0,0-2.632-5.642c-.156-2.04-.4-4.11-.728-6.075a50.89,50.89,0,0,0,5.934-.9,28.933,28.933,0,0,1,3.125,12.622Zm.058-15.293q-1.1.362-2.3.664A20.482,20.482,0,0,0,137.8,3.9,21.854,21.854,0,0,1,143.941,7.944Zm-26.953-.552q-.407.59-.782,1.213c-.794-.2-1.557-.42-2.284-.659A22.139,22.139,0,0,1,120,3.936,19.627,19.627,0,0,0,116.988,7.393Zm-3.029,32.926.041-.041q1.06-.345,2.217-.636A20.5,20.5,0,0,0,120,44.3a22.132,22.132,0,0,1-6.04-3.977Zm26.894.52q.4-.583.773-1.2,1.189.3,2.281.656a22.135,22.135,0,0,1-6.066,4,19.622,19.622,0,0,0,3.011-3.457Z" transform="translate(-92.807 -0.293)"/>
        <path id="Path_879512" data-name="Path 879512" d="M13.76,382.174l-2.287,2.287H7.981a4.68,4.68,0,0,0-3.171,1.234l-4.4,4.032a1.278,1.278,0,0,0,.553,2.181l2.931.736a.869.869,0,0,1,.632.633l.736,2.931h0a1.285,1.285,0,0,0,2.181.552l4.032-4.4a4.68,4.68,0,0,0,1.234-3.171V385.7L15,383.415A.878.878,0,0,0,13.76,382.174Zm-2.8,7.02a2.928,2.928,0,0,1-.772,1.984L6.754,394.92l-.52-2.071a2.623,2.623,0,0,0-1.908-1.908l-2.071-.52L6,386.989a2.928,2.928,0,0,1,1.984-.772H9.717l-3.074,3.074a.878.878,0,0,0,1.242,1.242l3.074-3.074Z" transform="translate(0 -337.239)"/>
      </g>
    </g>
  </g>
</svg>
