<svg xmlns="http://www.w3.org/2000/svg" width="100" height="100" viewBox="0 0 100 100">
  <g id="Group_1100965" data-name="Group 1100965" transform="translate(0.242)">
    <g id="Group_1098742" data-name="Group 1098742" transform="translate(0)">
      <rect id="Rectangle_400898" data-name="Rectangle 400898" width="100" height="100" rx="50" transform="translate(-0.242)" fill="#fff" opacity="0.859"/>
      <g id="Rectangle_400907" data-name="Rectangle 400907" transform="translate(-0.242)" fill="none" stroke="#6018ec" stroke-linecap="round" stroke-width="2" stroke-dasharray="7">
        <rect width="100" height="100" rx="50" stroke="none"/>
        <rect x="1" y="1" width="98" height="98" rx="49" fill="none"/>
      </g>
    </g>
    <g id="Group_1103103" data-name="Group 1103103" transform="translate(19.758 20)">
      <path id="Path_879446" data-name="Path 879446" d="M82.8,186.359H38.113a3.613,3.613,0,0,1-3.613-3.613V154.113a3.613,3.613,0,0,1,3.613-3.613H82.8a3.613,3.613,0,0,1,3.613,3.613v28.634A3.613,3.613,0,0,1,82.8,186.359Z" transform="translate(-30.457 -132.863)" fill="#918291"/>
      <path id="Path_879447" data-name="Path 879447" d="M420.189,150.5h-3.516a3.613,3.613,0,0,1,3.613,3.613v28.634a3.613,3.613,0,0,1-3.613,3.613h3.516a3.613,3.613,0,0,0,3.613-3.613V154.113A3.613,3.613,0,0,0,420.189,150.5Z" transform="translate(-367.844 -132.863)" fill="#7a6d79"/>
      <path id="Path_879448" data-name="Path 879448" d="M64.5,207.933V181.895a1.4,1.4,0,0,1,1.4-1.395h42.093a1.4,1.4,0,0,1,1.395,1.395v26.038a1.4,1.4,0,0,1-1.395,1.395H65.895A1.4,1.4,0,0,1,64.5,207.933Z" transform="translate(-56.941 -159.348)" fill="#c8effe"/>
      <path id="Path_879449" data-name="Path 879449" d="M62.908,462.125H10.334A2.834,2.834,0,0,1,7.5,459.291V457.2a.7.7,0,0,1,.7-.7H65.039a.7.7,0,0,1,.7.7v2.088A2.834,2.834,0,0,1,62.908,462.125Z" transform="translate(-6.621 -403.004)" fill="#cbe5e8"/>
      <path id="Path_879450" data-name="Path 879450" d="M455.965,456.5H452.45a.7.7,0,0,1,.7.7v2.088a2.834,2.834,0,0,1-2.834,2.834h3.516a2.834,2.834,0,0,0,2.834-2.834V457.2A.7.7,0,0,0,455.965,456.5Z" transform="translate(-397.547 -403.004)" fill="#a8d3d8"/>
      <path id="Path_879451" data-name="Path 879451" d="M212.517,459.313H202.374a.562.562,0,0,1-.531-.378L201,456.5h12.891l-.843,2.434A.562.562,0,0,1,212.517,459.313Z" transform="translate(-177.445 -403.004)" fill="#7ca1b1"/>
      <path id="Path_879452" data-name="Path 879452" d="M121,87.5h31.641v39.727H121Z" transform="translate(-106.82 -77.246)" fill="#eef5f6"/>
      <path id="Path_879453" data-name="Path 879453" d="M361,87.5h3.516v39.727H361Z" transform="translate(-318.695 -77.246)" fill="#deecf1"/>
      <path id="Path_879454" data-name="Path 879454" d="M152.641,16.875H121V9.844A2.344,2.344,0,0,1,123.344,7.5H150.3a2.344,2.344,0,0,1,2.344,2.344Z" transform="translate(-106.82 -6.621)" fill="#918291"/>
      <path id="Path_879455" data-name="Path 879455" d="M344.516,7.5H341a2.344,2.344,0,0,1,2.344,2.344v7.031h3.516V9.844A2.344,2.344,0,0,0,344.516,7.5Z" transform="translate(-301.039 -6.621)" fill="#7a6d79"/>
      <circle id="Ellipse_11687" data-name="Ellipse 11687" cx="1.875" cy="1.875" r="1.875" transform="translate(18.563 3.653)" fill="#fe646f"/>
      <circle id="Ellipse_11688" data-name="Ellipse 11688" cx="1.875" cy="1.875" r="1.875" transform="translate(25.438 3.653)" fill="#ffd15b"/>
      <circle id="Ellipse_11689" data-name="Ellipse 11689" cx="1.875" cy="1.875" r="1.875" transform="translate(32.313 3.653)" fill="#8379c1"/>
      <path id="Path_879456" data-name="Path 879456" d="M184.614,136.971H164.948a.948.948,0,0,1-.948-.948v-7.948a.948.948,0,0,1,.948-.948h19.666a.948.948,0,0,1,.948.948v7.948A.948.948,0,0,1,184.614,136.971Z" transform="translate(-144.781 -112.229)" fill="#fe646f"/>
      <g id="Group_1103102" data-name="Group 1103102" transform="translate(0 0)">
        <path id="Path_879457" data-name="Path 879457" d="M58.418,52.617H55.9a4.468,4.468,0,0,0,.931-2.734V21.25a4.5,4.5,0,0,0-4.492-4.492H46.7V3.223A3.226,3.226,0,0,0,43.477,0H16.523A3.226,3.226,0,0,0,13.3,3.223V16.758H7.656A4.5,4.5,0,0,0,3.164,21.25V42.362a.879.879,0,0,0,1.758,0V21.25a2.737,2.737,0,0,1,2.734-2.734H13.3v1.758H8.953A2.276,2.276,0,0,0,6.68,22.547V48.586a2.276,2.276,0,0,0,2.273,2.273H51.047a2.276,2.276,0,0,0,2.273-2.273V22.547a2.276,2.276,0,0,0-2.273-2.273H46.7V18.516h5.645a2.737,2.737,0,0,1,2.734,2.734V49.883a2.737,2.737,0,0,1-2.734,2.734H7.656a2.737,2.737,0,0,1-2.734-2.734V46.521a.879.879,0,0,0-1.758,0v3.363A4.468,4.468,0,0,0,4.1,52.617H1.582A1.584,1.584,0,0,0,0,54.2v2.088A3.717,3.717,0,0,0,3.713,60H56.287A3.717,3.717,0,0,0,60,56.287V54.2a1.584,1.584,0,0,0-1.582-1.582ZM15.059,3.223a1.466,1.466,0,0,1,1.465-1.465H43.477a1.466,1.466,0,0,1,1.465,1.465V9.375H15.059ZM8.437,48.586V22.547a.516.516,0,0,1,.516-.516H13.3V49.1H8.953A.516.516,0,0,1,8.437,48.586Zm6.621.516V11.133H44.941V49.1Zm35.988-27.07a.516.516,0,0,1,.516.516V48.586a.516.516,0,0,1-.516.516H46.7V22.031ZM35.211,54.375l-.365,1.055H25.154l-.365-1.055Zm23.031,1.912a1.957,1.957,0,0,1-1.955,1.955H3.713a1.957,1.957,0,0,1-1.955-1.955V54.375H22.929l.638,1.843a1.442,1.442,0,0,0,1.362.97H35.071a1.443,1.443,0,0,0,1.362-.97l.638-1.843H58.242Z" transform="translate(0 0)"/>
        <path id="Path_879458" data-name="Path 879458" d="M153.662,23.672a2.754,2.754,0,1,0,2.754,2.754A2.757,2.757,0,0,0,153.662,23.672Zm0,3.75a1,1,0,1,1,1-1A1,1,0,0,1,153.662,27.422Z" transform="translate(-133.223 -20.898)"/>
        <path id="Path_879459" data-name="Path 879459" d="M212.328,23.672a2.754,2.754,0,1,0,2.754,2.754A2.757,2.757,0,0,0,212.328,23.672Zm0,3.75a1,1,0,1,1,1-1A1,1,0,0,1,212.328,27.422Z" transform="translate(-185.015 -20.898)"/>
        <path id="Path_879460" data-name="Path 879460" d="M270.995,23.672a2.754,2.754,0,1,0,2.754,2.754A2.757,2.757,0,0,0,270.995,23.672Zm0,3.75a1,1,0,1,1,1-1A1,1,0,0,1,270.995,27.422Z" transform="translate(-236.806 -20.898)"/>
        <path id="Path_879461" data-name="Path 879461" d="M157.12,260.111h10.148a.879.879,0,0,0,0-1.758H157.12A.879.879,0,0,0,157.12,260.111Z" transform="translate(-137.938 -228.077)"/>
        <path id="Path_879462" data-name="Path 879462" d="M178.758,296.353H157.121a.879.879,0,0,0,0,1.758h21.637A.879.879,0,0,0,178.758,296.353Z" transform="translate(-137.94 -261.624)"/>
        <path id="Path_879463" data-name="Path 879463" d="M178.758,334.353H157.121a.879.879,0,0,0,0,1.758h21.637A.879.879,0,0,0,178.758,334.353Z" transform="translate(-137.94 -295.171)"/>
        <path id="Path_879464" data-name="Path 879464" d="M178.758,372.353H157.121a.879.879,0,0,0,0,1.758h21.637A.879.879,0,0,0,178.758,372.353Z" transform="translate(-137.94 -328.718)"/>
        <path id="Path_879465" data-name="Path 879465" d="M158.327,131.23h19.666a1.829,1.829,0,0,0,1.827-1.827v-7.948a1.829,1.829,0,0,0-1.827-1.827h-3.911a.879.879,0,0,0,0,1.758h3.911a.069.069,0,0,1,.069.069V129.4a.069.069,0,0,1-.069.069c-.081-.075-19.741.137-19.735-.069,0,0,0-7.948,0-7.948a.069.069,0,0,1,.069-.069H169.9a.879.879,0,0,0,0-1.758H158.327a1.829,1.829,0,0,0-1.827,1.827V129.4a1.829,1.829,0,0,0,1.827,1.827Z" transform="translate(-138.16 -105.609)"/>
      </g>
    </g>
  </g>
</svg>
