<svg xmlns="http://www.w3.org/2000/svg" width="100" height="100" viewBox="0 0 100 100">
  <g id="Group_1100965" data-name="Group 1100965" transform="translate(0.242)">
    <g id="Group_1098742" data-name="Group 1098742" transform="translate(0)">
      <rect id="Rectangle_400898" data-name="Rectangle 400898" width="100" height="100" rx="50" transform="translate(-0.242)" fill="#fff" opacity="0.859"/>
      <g id="Rectangle_400907" data-name="Rectangle 400907" transform="translate(-0.242)" fill="none" stroke="#6018ec" stroke-linecap="round" stroke-width="2" stroke-dasharray="7">
        <rect width="100" height="100" rx="50" stroke="none"/>
        <rect x="1" y="1" width="98" height="98" rx="49" fill="none"/>
      </g>
    </g>
    <g id="Group_1103101" data-name="Group 1103101" transform="translate(19.758 2.785)">
      <path id="Path_879414" data-name="Path 879414" d="M32.3,151.3H10.547A3.047,3.047,0,0,1,7.5,148.25V107H35.35v41.25A3.047,3.047,0,0,1,32.3,151.3Z" transform="translate(-6.621 -77.246)" fill="#eef5f6"/>
      <path id="Path_879415" data-name="Path 879415" d="M192.2,107v41.25a3.047,3.047,0,0,1-3.047,3.047h3.516a3.047,3.047,0,0,0,3.047-3.047V107Z" transform="translate(-166.988 -77.246)" fill="#deecf1"/>
      <path id="Path_879416" data-name="Path 879416" d="M35.35,36.375H7.5V30.047A3.047,3.047,0,0,1,10.547,27H32.3a3.047,3.047,0,0,1,3.047,3.047Z" transform="translate(-6.621 -6.621)" fill="#918291"/>
      <path id="Path_879417" data-name="Path 879417" d="M192.67,27h-3.516a3.047,3.047,0,0,1,3.047,3.047v6.328h3.516V30.047A3.047,3.047,0,0,0,192.67,27Z" transform="translate(-166.988 -6.621)" fill="#7a6d79"/>
      <circle id="Ellipse_11682" data-name="Ellipse 11682" cx="1.875" cy="1.875" r="1.875" transform="translate(4.615 23.153)" fill="#fe646f"/>
      <circle id="Ellipse_11683" data-name="Ellipse 11683" cx="1.875" cy="1.875" r="1.875" transform="translate(11.49 23.153)" fill="#ffd15b"/>
      <circle id="Ellipse_11684" data-name="Ellipse 11684" cx="1.875" cy="1.875" r="1.875" transform="translate(18.365 23.153)" fill="#8379c1"/>
      <path id="Path_879418" data-name="Path 879418" d="M306.159,125.164h-19.83a3.047,3.047,0,0,1-3.047-3.047V107h25.924v15.117A3.047,3.047,0,0,1,306.159,125.164Z" transform="translate(-250.085 -77.246)" fill="#eef5f6"/>
      <path id="Path_879419" data-name="Path 879419" d="M451.547,107v15.117a3.047,3.047,0,0,1-3.047,3.047h3.516a3.047,3.047,0,0,0,3.047-3.047V107Z" transform="translate(-395.941 -77.246)" fill="#deecf1"/>
      <path id="Path_879420" data-name="Path 879420" d="M309.206,36.375H283.282V30.047A3.047,3.047,0,0,1,286.329,27h19.83a3.047,3.047,0,0,1,3.047,3.047Z" transform="translate(-250.085 -6.621)" fill="#fe646f"/>
      <path id="Path_879421" data-name="Path 879421" d="M452.016,27H448.5a3.047,3.047,0,0,1,3.047,3.047v6.328h3.516V30.047A3.047,3.047,0,0,0,452.016,27Z" transform="translate(-395.941 -6.621)" fill="#fd4755"/>
      <circle id="Ellipse_11685" data-name="Ellipse 11685" cx="1.875" cy="1.875" r="1.875" transform="translate(36.934 23.153)" fill="#ffd15b"/>
      <path id="Path_879422" data-name="Path 879422" d="M306.159,387.008h-19.83a3.047,3.047,0,0,1-3.047-3.047V374h25.924v9.961A3.047,3.047,0,0,1,306.159,387.008Z" transform="translate(-250.085 -312.957)" fill="#eef5f6"/>
      <path id="Path_879423" data-name="Path 879423" d="M451.547,374v9.961a3.047,3.047,0,0,1-3.047,3.047h3.516a3.047,3.047,0,0,0,3.047-3.047V374Z" transform="translate(-395.941 -312.957)" fill="#deecf1"/>
      <path id="Path_879424" data-name="Path 879424" d="M309.206,303.375H283.282v-6.328A3.047,3.047,0,0,1,286.329,294h19.83a3.047,3.047,0,0,1,3.047,3.047Z" transform="translate(-250.085 -242.332)" fill="#8379c1"/>
      <path id="Path_879425" data-name="Path 879425" d="M452.016,294H448.5a3.047,3.047,0,0,1,3.047,3.047v6.328h3.516v-6.328A3.047,3.047,0,0,0,452.016,294Z" transform="translate(-395.941 -242.332)" fill="#6e61b6"/>
      <circle id="Ellipse_11686" data-name="Ellipse 11686" cx="1.875" cy="1.875" r="1.875" transform="translate(36.934 54.442)" fill="#fe646f"/>
      <path id="Path_879426" data-name="Path 879426" d="M85.269,393.907H77.3a1.992,1.992,0,0,1,0-3.984h7.969a1.992,1.992,0,1,1,0,3.984Z" transform="translate(-66.483 -327.014)" fill="#fe646f"/>
      <path id="Path_879427" data-name="Path 879427" d="M133.824,389.923h-3.516a1.992,1.992,0,1,1,0,3.984h3.516a1.992,1.992,0,1,0,0-3.984Z" transform="translate(-115.038 -327.014)" fill="#fd4755"/>
      <g id="Group_1103100" data-name="Group 1103100" transform="translate(0 19.5)">
        <path id="Path_879428" data-name="Path 879428" d="M25.682,19.5H3.926A3.93,3.93,0,0,0,0,23.426V53.519a.879.879,0,1,0,1.758,0V30.633H27.85V71a2.17,2.17,0,0,1-2.168,2.168H3.926A2.17,2.17,0,0,1,1.758,71V57.487a.879.879,0,0,0-1.758,0V71A3.93,3.93,0,0,0,3.926,74.93H25.682A3.93,3.93,0,0,0,29.608,71V23.426A3.93,3.93,0,0,0,25.682,19.5ZM1.758,28.875V23.426a2.17,2.17,0,0,1,2.168-2.168H25.682a2.17,2.17,0,0,1,2.168,2.168v5.449Z" transform="translate(0 -19.5)"/>
        <path id="Path_879429" data-name="Path 879429" d="M34.639,43.172a2.754,2.754,0,1,0,2.754,2.754A2.757,2.757,0,0,0,34.639,43.172Zm0,3.75a1,1,0,1,1,1-1A1,1,0,0,1,34.639,46.922Z" transform="translate(-28.148 -40.398)"/>
        <path id="Path_879430" data-name="Path 879430" d="M93.3,43.172a2.754,2.754,0,1,0,2.754,2.754A2.757,2.757,0,0,0,93.3,43.172Zm0,3.75a1,1,0,1,1,1-1A1,1,0,0,1,93.3,46.922Z" transform="translate(-79.94 -40.398)"/>
        <path id="Path_879431" data-name="Path 879431" d="M151.972,43.172a2.754,2.754,0,1,0,2.754,2.754A2.757,2.757,0,0,0,151.972,43.172Zm0,3.75a1,1,0,1,1,1-1A1,1,0,0,1,151.972,46.922Z" transform="translate(-131.732 -40.398)"/>
        <path id="Path_879432" data-name="Path 879432" d="M299.538,19.5h-2.75a.879.879,0,0,0,0,1.758h2.75a2.17,2.17,0,0,1,2.168,2.168v5.449H277.54V23.426a2.17,2.17,0,0,1,2.168-2.168h12.938a.879.879,0,1,0,0-1.758H279.708a3.93,3.93,0,0,0-3.926,3.926V44.871a3.93,3.93,0,0,0,3.926,3.926h19.83a3.93,3.93,0,0,0,3.926-3.926V23.426A3.93,3.93,0,0,0,299.538,19.5Zm2.168,25.371a2.17,2.17,0,0,1-2.168,2.168h-19.83a2.17,2.17,0,0,1-2.168-2.168V30.633h24.166Z" transform="translate(-243.464 -19.5)"/>
        <path id="Path_879433" data-name="Path 879433" d="M307.667,45.926a2.754,2.754,0,1,0,2.754-2.754A2.757,2.757,0,0,0,307.667,45.926Zm3.75,0a1,1,0,1,1-1-1A1,1,0,0,1,311.417,45.926Z" transform="translate(-271.612 -40.398)"/>
        <path id="Path_879434" data-name="Path 879434" d="M299.538,286.5h-19.83a3.93,3.93,0,0,0-3.926,3.926v16.289a3.93,3.93,0,0,0,3.926,3.926h19.83a3.93,3.93,0,0,0,3.926-3.926V290.426A3.93,3.93,0,0,0,299.538,286.5Zm-22,3.926a2.17,2.17,0,0,1,2.168-2.168h19.83a2.17,2.17,0,0,1,2.168,2.168v5.449H277.54Zm24.166,16.289a2.17,2.17,0,0,1-2.168,2.168h-19.83a2.17,2.17,0,0,1-2.168-2.168v-9.082h24.166Z" transform="translate(-243.464 -255.211)"/>
        <path id="Path_879435" data-name="Path 879435" d="M310.421,310.172a2.754,2.754,0,1,0,2.754,2.754A2.757,2.757,0,0,0,310.421,310.172Zm0,3.75a1,1,0,1,1,1-1A1,1,0,0,1,310.421,313.922Z" transform="translate(-271.612 -276.109)"/>
        <path id="Path_879436" data-name="Path 879436" d="M52.438,169.758H59.8a.879.879,0,0,0,0-1.758H52.438A.879.879,0,0,0,52.438,169.758Z" transform="translate(-45.524 -150.598)"/>
        <path id="Path_879437" data-name="Path 879437" d="M52.438,207.758h15.7a.879.879,0,1,0,0-1.758h-15.7A.879.879,0,0,0,52.438,207.758Z" transform="translate(-45.524 -184.145)"/>
        <path id="Path_879438" data-name="Path 879438" d="M52.438,245.758h15.7a.879.879,0,0,0,0-1.758h-15.7A.879.879,0,0,0,52.438,245.758Z" transform="translate(-45.524 -217.691)"/>
        <path id="Path_879439" data-name="Path 879439" d="M52.438,283.758h15.7a.879.879,0,0,0,0-1.758h-15.7A.879.879,0,0,0,52.438,283.758Z" transform="translate(-45.524 -251.238)"/>
        <path id="Path_879440" data-name="Path 879440" d="M320.438,150.758H327.8a.879.879,0,0,0,0-1.758h-7.365A.879.879,0,0,0,320.438,150.758Z" transform="translate(-282.117 -133.824)"/>
        <path id="Path_879441" data-name="Path 879441" d="M320.438,188.758h15.7a.879.879,0,0,0,0-1.758h-15.7A.879.879,0,0,0,320.438,188.758Z" transform="translate(-282.118 -167.371)"/>
        <path id="Path_879442" data-name="Path 879442" d="M70.821,382.423a2.871,2.871,0,0,0,0,5.742h7.969a2.871,2.871,0,0,0,0-5.742Zm9.082,2.871a1.115,1.115,0,0,1-1.113,1.113H70.821a1.113,1.113,0,1,1,0-2.227h7.969A1.115,1.115,0,0,1,79.9,385.294Z" transform="translate(-60.003 -339.893)"/>
        <path id="Path_879443" data-name="Path 879443" d="M326.879,407.758h4.687a.879.879,0,0,0,0-1.758h-4.687a.879.879,0,1,0,0,1.758Z" transform="translate(-287.797 -360.707)"/>
        <path id="Path_879444" data-name="Path 879444" d="M326.879,435.758h4.687a.879.879,0,0,0,0-1.758h-4.687a.879.879,0,1,0,0,1.758Z" transform="translate(-287.797 -385.426)"/>
        <path id="Path_879445" data-name="Path 879445" d="M406.879,407.758h4.688a.879.879,0,0,0,0-1.758h-4.687a.879.879,0,1,0,0,1.758Z" transform="translate(-358.422 -360.707)"/>
      </g>
    </g>
  </g>
</svg>
