<svg xmlns="http://www.w3.org/2000/svg" width="100" height="100" viewBox="0 0 100 100">
  <g id="Group_1100965" data-name="Group 1100965" transform="translate(0.242)">
    <g id="Group_1098742" data-name="Group 1098742" transform="translate(0)">
      <rect id="Rectangle_400898" data-name="Rectangle 400898" width="100" height="100" rx="50" transform="translate(-0.242)" fill="#fff" opacity="0.859"/>
      <g id="Rectangle_400907" data-name="Rectangle 400907" transform="translate(-0.242)" fill="none" stroke="#6018ec" stroke-linecap="round" stroke-width="2" stroke-dasharray="7">
        <rect width="100" height="100" rx="50" stroke="none"/>
        <rect x="1" y="1" width="98" height="98" rx="49" fill="none"/>
      </g>
    </g>
    <g id="Group_1103118" data-name="Group 1103118" transform="translate(19.758 1.032)">
      <path id="Path_879488" data-name="Path 879488" d="M62.7,145.314H10.547A3.047,3.047,0,0,1,7.5,142.267V108.986H65.742v33.281A3.047,3.047,0,0,1,62.7,145.314Z" transform="translate(-6.621 -77.246)" fill="#8379c1"/>
      <path id="Path_879489" data-name="Path 879489" d="M451.547,108.986v33.281a3.047,3.047,0,0,1-3.047,3.047h3.516a3.047,3.047,0,0,0,3.047-3.047V108.986Z" transform="translate(-395.941 -77.246)" fill="#6e61b6"/>
      <path id="Path_879490" data-name="Path 879490" d="M65.742,38.361H7.5V32.033a3.047,3.047,0,0,1,3.047-3.047H62.7a3.047,3.047,0,0,1,3.047,3.047Z" transform="translate(-6.621 -6.621)" fill="#918291"/>
      <path id="Path_879491" data-name="Path 879491" d="M452.016,28.986H448.5a3.047,3.047,0,0,1,3.047,3.047v6.328h3.516V32.033A3.047,3.047,0,0,0,452.016,28.986Z" transform="translate(-395.941 -6.621)" fill="#7a6d79"/>
      <circle id="Ellipse_11692" data-name="Ellipse 11692" cx="1.875" cy="1.875" r="1.875" transform="translate(6.824 25.139)" fill="#fe646f"/>
      <circle id="Ellipse_11693" data-name="Ellipse 11693" cx="1.875" cy="1.875" r="1.875" transform="translate(13.699 25.139)" fill="#ffd15b"/>
      <circle id="Ellipse_11694" data-name="Ellipse 11694" cx="1.875" cy="1.875" r="1.875" transform="translate(20.574 25.139)" fill="#8379c1"/>
      <path id="Path_879492" data-name="Path 879492" d="M53.065,297.729a.476.476,0,0,1,.476.483,6.627,6.627,0,0,1-.876,3.564.151.151,0,0,0,.157.23,6.173,6.173,0,0,0,4.851-3.917.468.468,0,0,1,.452-.36h9.118a4.564,4.564,0,0,0,4.569-4.559V282.545a4.564,4.564,0,0,0-4.569-4.559H50.365a4.563,4.563,0,0,0-4.569,4.558v10.627a4.564,4.564,0,0,0,4.569,4.559Z" transform="translate(-40.429 -226.441)" fill="#eef5f6"/>
      <g id="Group_1103115" data-name="Group 1103115" transform="translate(23.297 51.545)">
        <path id="Path_879493" data-name="Path 879493" d="M202.321,277.986H198.8a4.564,4.564,0,0,1,4.569,4.559v10.626a4.564,4.564,0,0,1-4.569,4.559h3.516a4.564,4.564,0,0,0,4.569-4.559V282.545A4.564,4.564,0,0,0,202.321,277.986Z" transform="translate(-198.805 -277.986)" fill="#deecf1"/>
      </g>
      <path id="Path_879494" data-name="Path 879494" d="M272.155,83.618a.476.476,0,0,0-.476.483,6.627,6.627,0,0,0,.876,3.564.151.151,0,0,1-.157.23,6.173,6.173,0,0,1-4.851-3.917.468.468,0,0,0-.452-.36h-9.118a4.564,4.564,0,0,1-4.569-4.559V68.433a4.564,4.564,0,0,1,4.569-4.559h16.878a4.563,4.563,0,0,1,4.569,4.558V79.059a4.564,4.564,0,0,1-4.569,4.559Z" transform="translate(-223.712 -37.421)" fill="#eef5f6"/>
      <g id="Group_1103116" data-name="Group 1103116" transform="translate(47.628 26.453)">
        <path id="Path_879495" data-name="Path 879495" d="M409.939,63.874h-3.516a4.564,4.564,0,0,1,4.569,4.558V79.059c0,2.518-1.23,4.559-3.753,4.559h2.7a4.564,4.564,0,0,0,4.569-4.559V68.432A4.564,4.564,0,0,0,409.939,63.874Z" transform="translate(-406.423 -63.874)" fill="#deecf1"/>
      </g>
      <path id="Path_879496" data-name="Path 879496" d="M337.384,332.247h-7.969a1.992,1.992,0,0,1,0-3.984h7.969a1.992,1.992,0,0,1,0,3.984Z" transform="translate(-289.053 -270.827)" fill="#fe646f"/>
      <path id="Path_879497" data-name="Path 879497" d="M385.939,328.263h-3.516a1.992,1.992,0,0,1,0,3.984h3.516a1.992,1.992,0,0,0,0-3.984Z" transform="translate(-337.608 -270.827)" fill="#fd4755"/>
      <g id="Group_1103117" data-name="Group 1103117" transform="translate(0 21.486)">
        <path id="Path_879498" data-name="Path 879498" d="M56.074,21.486H3.926A3.93,3.93,0,0,0,0,25.412V45.006a.879.879,0,0,0,1.758,0V32.619h27.06v9.019a5.449,5.449,0,0,0,5.448,5.438h8.808a7.248,7.248,0,0,0,5.439,4.259,1.034,1.034,0,0,0,1.066-1.572,5.477,5.477,0,0,1-.718-2.687h2.282a5.449,5.449,0,0,0,5.448-5.438V32.619h1.651v32.4a2.17,2.17,0,0,1-2.168,2.168H32.24c.013-.152.021-.3.021-.46V56.1a5.449,5.449,0,0,0-5.448-5.438H9.935A5.449,5.449,0,0,0,4.488,56.1V66.729c0,.155.008.308.021.46H3.926a2.17,2.17,0,0,1-2.168-2.168V49.069a.879.879,0,0,0-1.758,0V65.021a3.93,3.93,0,0,0,3.926,3.926H4.963a5.455,5.455,0,0,0,4.972,3.22h2.282a5.477,5.477,0,0,1-.718,2.687,1.034,1.034,0,0,0,1.066,1.573A7.247,7.247,0,0,0,18,72.167h8.808a5.455,5.455,0,0,0,4.973-3.22H56.074A3.93,3.93,0,0,0,60,65.021V25.412a3.93,3.93,0,0,0-3.926-3.926ZM26.813,70.409H17.695a1.348,1.348,0,0,0-1.3,1.024,4.876,4.876,0,0,1-2.732,2.806,9.512,9.512,0,0,0,.331-2.456,1.361,1.361,0,0,0-1.354-1.374h-2.7a3.689,3.689,0,0,1-3.69-3.68V56.1a3.689,3.689,0,0,1,3.69-3.679H26.813A3.689,3.689,0,0,1,30.5,56.1V66.729A3.689,3.689,0,0,1,26.813,70.409ZM56.587,30.861a5.448,5.448,0,0,0-5.444-5.286H46.722a.879.879,0,0,0,0,1.758h4.421a3.689,3.689,0,0,1,3.69,3.679V41.638a3.689,3.689,0,0,1-3.69,3.68h-2.7a1.361,1.361,0,0,0-1.354,1.374,9.516,9.516,0,0,0,.331,2.456,4.875,4.875,0,0,1-2.732-2.805,1.347,1.347,0,0,0-1.3-1.024H34.266a3.689,3.689,0,0,1-3.69-3.68V31.012a3.689,3.689,0,0,1,3.69-3.68h8.286a.879.879,0,0,0,0-1.758H34.266a5.449,5.449,0,0,0-5.444,5.286H1.758V25.412a2.17,2.17,0,0,1,2.168-2.168H56.074a2.17,2.17,0,0,1,2.168,2.168v5.449H56.587Z" transform="translate(0 -21.486)"/>
        <path id="Path_879499" data-name="Path 879499" d="M53.485,45.158a2.754,2.754,0,1,0,2.754,2.754A2.757,2.757,0,0,0,53.485,45.158Zm0,3.75a1,1,0,1,1,1-1A1,1,0,0,1,53.485,48.908Z" transform="translate(-44.786 -42.384)"/>
        <path id="Path_879500" data-name="Path 879500" d="M112.151,45.158a2.754,2.754,0,1,0,2.754,2.754A2.757,2.757,0,0,0,112.151,45.158Zm0,3.75a1,1,0,1,1,1-1A1,1,0,0,1,112.151,48.908Z" transform="translate(-96.577 -42.384)"/>
        <path id="Path_879501" data-name="Path 879501" d="M170.818,45.158a2.754,2.754,0,1,0,2.754,2.754A2.757,2.757,0,0,0,170.818,45.158Zm0,3.75a1,1,0,1,1,1-1A1,1,0,0,1,170.818,48.908Z" transform="translate(-148.369 -42.384)"/>
        <path id="Path_879502" data-name="Path 879502" d="M295.1,106.95h6.136a.879.879,0,0,0,0-1.758H295.1a.879.879,0,0,0,0,1.758Z" transform="translate(-259.742 -95.383)"/>
        <path id="Path_879503" data-name="Path 879503" d="M294.221,137.342a.879.879,0,0,0,.879.879h11.143a.879.879,0,0,0,0-1.758H295.1A.879.879,0,0,0,294.221,137.342Z" transform="translate(-259.742 -122.989)"/>
        <path id="Path_879504" data-name="Path 879504" d="M306.243,167.733H295.1a.879.879,0,0,0,0,1.758h11.143A.879.879,0,0,0,306.243,167.733Z" transform="translate(-259.742 -150.595)"/>
        <path id="Path_879505" data-name="Path 879505" d="M92.968,323.021H99.1a.879.879,0,0,0,0-1.758H92.968a.879.879,0,0,0,0,1.758Z" transform="translate(-81.297 -286.133)"/>
        <path id="Path_879506" data-name="Path 879506" d="M104.111,352.534H92.968a.879.879,0,0,0,0,1.758h11.143A.879.879,0,0,0,104.111,352.534Z" transform="translate(-81.297 -313.739)"/>
        <path id="Path_879507" data-name="Path 879507" d="M104.111,383.8H92.968a.879.879,0,0,0,0,1.758h11.143A.879.879,0,0,0,104.111,383.8Z" transform="translate(-81.297 -341.345)"/>
        <path id="Path_879508" data-name="Path 879508" d="M330.9,326.505a2.871,2.871,0,0,0,0-5.742h-7.969a2.871,2.871,0,0,0,0,5.742Zm-9.082-2.871a1.115,1.115,0,0,1,1.113-1.113H330.9a1.113,1.113,0,0,1,0,2.227h-7.969A1.115,1.115,0,0,1,321.821,323.634Z" transform="translate(-282.573 -285.691)"/>
      </g>
    </g>
  </g>
</svg>
