<svg xmlns="http://www.w3.org/2000/svg" width="100" height="100" viewBox="0 0 100 100">
  <g id="Group_1100965" data-name="Group 1100965" transform="translate(0.242)">
    <g id="Group_1098742" data-name="Group 1098742" transform="translate(0)">
      <rect id="Rectangle_400898" data-name="Rectangle 400898" width="100" height="100" rx="50" transform="translate(-0.242)" fill="#fff" opacity="0.859"/>
      <g id="Rectangle_400907" data-name="Rectangle 400907" transform="translate(-0.242)" fill="none" stroke="#6018ec" stroke-linecap="round" stroke-width="2" stroke-dasharray="7">
        <rect width="100" height="100" rx="50" stroke="none"/>
        <rect x="1" y="1" width="98" height="98" rx="49" fill="none"/>
      </g>
    </g>
    <g id="Group_1103108" data-name="Group 1103108" transform="translate(19.604 19.982)">
      <path id="Path_879466" data-name="Path 879466" d="M342.363,345.047,324.217,326.9l2.486-2.486,18.146,18.146a1.758,1.758,0,1,1-2.486,2.486Z" transform="translate(-286.09 -286.4)" fill="#eef5f6"/>
      <path id="Path_879467" data-name="Path 879467" d="M341.563,339.08l-2.68,2.68a1.512,1.512,0,0,1-2.139,0l-1.914-1.914,4.819-4.819,1.914,1.914A1.512,1.512,0,0,1,341.563,339.08Z" transform="translate(-295.46 -295.769)" fill="#fe646f"/>
      <path id="Path_879468" data-name="Path 879468" d="M411.234,408.887l-2.545,2.545a.442.442,0,0,1-.625,0l-6.911-6.911a.442.442,0,0,1,0-.625l2.545-2.545a.442.442,0,0,1,.625,0l6.911,6.911A.442.442,0,0,1,411.234,408.887Z" transform="translate(-353.896 -354.207)" fill="#fe646f"/>
      <circle id="Ellipse_11690" data-name="Ellipse 11690" cx="24.139" cy="24.139" r="24.139" transform="translate(1.035 0.923)" fill="#918291"/>
      <path id="Path_879469" data-name="Path 879469" d="M200.438,7.878q-.887,0-1.758.064a24.139,24.139,0,0,1,0,48.15q.871.063,1.758.064a24.139,24.139,0,0,0,0-48.279Z" transform="translate(-175.263 -6.955)" fill="#7a6d79"/>
      <circle id="Ellipse_11691" data-name="Ellipse 11691" cx="20.624" cy="20.624" r="20.624" transform="translate(4.551 4.439)" fill="#c8effe"/>
      <path id="Path_879470" data-name="Path 879470" d="M200.438,37.878c-.592,0-1.178.026-1.758.076a20.623,20.623,0,0,1,0,41.1c.58.049,1.166.076,1.758.076a20.624,20.624,0,0,0,0-41.248Z" transform="translate(-175.263 -33.439)" fill="#99e6fc"/>
      <path id="Path_879471" data-name="Path 879471" d="M181.568,37.352V53.695a8.117,8.117,0,0,1-8.117,8.117H156.839a.424.424,0,0,0-.385.241c-1.719,3.663-5.665,5.056-7.57,5.529a.167.167,0,0,1-.14-.3c1.592-1.192,1.981-3.43,2.037-5.031a.429.429,0,0,0-.429-.444H146.8a8.117,8.117,0,0,1-8.117-8.117V37.352a8.117,8.117,0,0,1,8.117-8.117h26.655a8.117,8.117,0,0,1,8.117,8.117Z" transform="translate(-122.294 -25.809)" fill="#eef5f6"/>
      <g id="Group_1103104" data-name="Group 1103104" transform="translate(47.642 3.426)">
        <path id="Path_879472" data-name="Path 879472" d="M408.928,29.236h-3.515a8.117,8.117,0,0,1,8.117,8.117V53.7a8.117,8.117,0,0,1-8.117,8.117h3.515a8.117,8.117,0,0,0,8.117-8.117V37.353a8.117,8.117,0,0,0-8.117-8.117Z" transform="translate(-405.413 -29.236)" fill="#deecf1"/>
      </g>
      <g id="Group_1103106" data-name="Group 1103106" transform="translate(20.931 10.808)">
        <path id="Path_879473" data-name="Path 879473" d="M192.44,154.455H179.573a2.109,2.109,0,1,1,0-4.219H192.44v4.219Z" transform="translate(-177.464 -143.439)" fill="#ffd15b"/>
        <path id="Path_879474" data-name="Path 879474" d="M348.921,92.236H344.1a3.984,3.984,0,0,0-3.984,3.984v9.843a3.984,3.984,0,0,0,3.984,3.984h4.826a3.984,3.984,0,0,0,3.984-3.984V96.22A3.984,3.984,0,0,0,348.921,92.236Zm.469,13.593a.7.7,0,0,1-.7.7h-4.357a.7.7,0,0,1-.7-.7V96.455a.7.7,0,0,1,.7-.7h4.357a.7.7,0,0,1,.7.7Z" transform="translate(-321.052 -92.236)" fill="#ffd15b"/>
        <g id="Group_1103105" data-name="Group 1103105" transform="translate(3.611 5.134)">
          <path id="Path_879475" data-name="Path 879475" d="M309.352,143.594h-2.9a1.187,1.187,0,0,1-1.187-1.187v-5.169a1.187,1.187,0,0,1,1.187-1.187h2.9Z" transform="translate(-293.904 -136.051)" fill="#ffc344"/>
          <path id="Path_879476" data-name="Path 879476" d="M208.28,186.236h5.508v3.515H208.28Z" transform="translate(-208.28 -180.355)" fill="#ffc344"/>
        </g>
      </g>
      <g id="Group_1103107" data-name="Group 1103107" transform="translate(0.153 0)">
        <path id="Path_879477" data-name="Path 879477" d="M193.886,104.305h4.826a4.869,4.869,0,0,0,4.863-4.863V89.6a4.869,4.869,0,0,0-4.863-4.863h-4.826a4.887,4.887,0,0,0-4.863,5.134h-2.017a2.069,2.069,0,0,0-2.026,1.662H172.952a2.988,2.988,0,0,0,0,5.976h.623v2.637a.879.879,0,0,0,.879.879h5.508a.879.879,0,0,0,.879-.879V97.509h4.14a2.069,2.069,0,0,0,2.026,1.662h2.017A4.887,4.887,0,0,0,193.886,104.305ZM190.781,89.6a3.109,3.109,0,0,1,3.105-3.105h4.826a3.109,3.109,0,0,1,3.105,3.105v9.843a3.109,3.109,0,0,1-3.105,3.105h-4.826a3.109,3.109,0,0,1-3.105-3.105ZM171.722,94.52a1.232,1.232,0,0,1,1.23-1.23H184.94v2.461H172.952A1.232,1.232,0,0,1,171.722,94.52Zm7.361,4.746h-3.75V97.509h3.75Zm7.924-1.853a.309.309,0,0,1-.308-.308V91.936a.308.308,0,0,1,.308-.308h2.017v5.785h-2.017Z" transform="translate(-150.065 -74.806)"/>
        <path id="Path_879478" data-name="Path 879478" d="M364.192,127.274h4.357a1.584,1.584,0,0,0,1.582-1.582v-9.374a1.584,1.584,0,0,0-1.582-1.582h-4.357a1.584,1.584,0,0,0-1.582,1.582v9.374A1.584,1.584,0,0,0,364.192,127.274Zm.176-10.781h4.006v9.023h-4.006Z" transform="translate(-320.137 -101.291)"/>
        <path id="Path_879479" data-name="Path 879479" d="M51.158,36.881a9.006,9.006,0,0,0,9-9V11.543a9.006,9.006,0,0,0-9-9H49.886a.879.879,0,1,0,0,1.758h1.271A7.246,7.246,0,0,1,58.4,11.543V27.885a7.246,7.246,0,0,1-7.238,7.238H34.545a1.307,1.307,0,0,0-1.181.746,9.069,9.069,0,0,1-4.8,4.319,9.617,9.617,0,0,0,.8-3.711,1.316,1.316,0,0,0-1.307-1.353H24.5a7.246,7.246,0,0,1-7.238-7.238V11.543A7.246,7.246,0,0,1,24.5,4.3H45.722a.879.879,0,0,0,0-1.758H36.085C19.938-5.627-.145,6.94.157,25.063-.015,45.1,23.317,57.206,39.572,45.522l1.091,1.091a2.39,2.39,0,0,0,2.773.44l2.82,2.82a1.318,1.318,0,0,0,.38,1.064l6.911,6.911a1.317,1.317,0,0,0,1.065.381l1.041,1.041a2.637,2.637,0,0,0,3.729-3.729L58.339,54.5a1.319,1.319,0,0,0-.38-1.064l-6.911-6.911a1.319,1.319,0,0,0-1.064-.38l-2.82-2.82a2.394,2.394,0,0,0-.44-2.773l-1.09-1.09a25.05,25.05,0,0,0,1.591-2.58Zm-5.151,7.77,2.523,2.523-1.243,1.243-2.523-2.523ZM58.138,58.026a.883.883,0,0,1-1.243,0l-.83-.83,1.243-1.243.83.83A.883.883,0,0,1,58.138,58.026Zm-1.731-3.658L54.48,56.3,48.188,50l1.927-1.927ZM45.482,41.794a.634.634,0,0,1,0,.9L42.8,45.37a.634.634,0,0,1-.9,0l-.92-.92a25.118,25.118,0,0,0,3.576-3.576ZM25.175,48.323a23.287,23.287,0,0,1-23.26-23.26C1.7,10.074,16.628-1.4,31.047,2.547H24.5A8.949,8.949,0,0,0,18.921,4.5C.656,10.121-1.788,35.018,15.1,44.054a.879.879,0,0,0,.826-1.551C1.68,35.075,2.147,14.056,16.583,7.28a8.939,8.939,0,0,0-1.076,4.262V27.885a9.006,9.006,0,0,0,9,9h3.08a5.306,5.306,0,0,1-1.66,3.892,1.045,1.045,0,0,0,.879,1.852c2.2-.547,6.128-2.015,8.024-5.744H40.98a19.777,19.777,0,0,1-21.426,7.112.879.879,0,0,0-.5,1.685,21.536,21.536,0,0,0,24.074-8.8h2.086A23.181,23.181,0,0,1,25.175,48.323Z" transform="translate(-0.153 0)"/>
      </g>
    </g>
  </g>
</svg>
