<svg xmlns="http://www.w3.org/2000/svg" width="100" height="100" viewBox="0 0 100 100">
  <g id="Group_1100965" data-name="Group 1100965" transform="translate(0.242)">
    <g id="Group_1098742" data-name="Group 1098742" transform="translate(0)">
      <rect id="Rectangle_400898" data-name="Rectangle 400898" width="100" height="100" rx="50" transform="translate(-0.242)" fill="#fff" opacity="0.859"/>
      <g id="Rectangle_400907" data-name="Rectangle 400907" transform="translate(-0.242)" fill="none" stroke="#6018ec" stroke-linecap="round" stroke-width="2" stroke-dasharray="7">
        <rect width="100" height="100" rx="50" stroke="none"/>
        <rect x="1" y="1" width="98" height="98" rx="49" fill="none"/>
      </g>
    </g>
    <g id="Group_1103114" data-name="Group 1103114" transform="translate(13.973 19.307)">
      <g id="Group_1103109" data-name="Group 1103109" transform="translate(17.346 1.199)">
        <path id="Path_879480" data-name="Path 879480" d="M139.09,32.152l-7.181-15.193A12.258,12.258,0,0,0,120.856,10h-.406A12.258,12.258,0,0,0,109.4,16.959l-7.182,15.2s6.221-11.514,18.438-11.529C132.871,20.641,139.09,32.152,139.09,32.152Z" transform="translate(-102.215 -10)" fill="#b7bcce"/>
      </g>
      <g id="Group_1103110" data-name="Group 1103110" transform="translate(17.103 11.824)">
        <path id="Path_879481" data-name="Path 879481" d="M137.547,111.889a6.353,6.353,0,0,1-3.63,5.741l-11.872,5.655a7.488,7.488,0,0,1-6.327-.006l-11.9-5.649a6.353,6.353,0,0,1-3.387-7.479c1.216-2.223,7.585-11.515,18.438-11.53,10.843.014,17.164,9.232,18.438,11.526A6.281,6.281,0,0,1,137.547,111.889Z" transform="translate(-100.185 -98.621)" fill="#868eaf"/>
      </g>
      <g id="Group_1103111" data-name="Group 1103111" transform="translate(6.984 32.015)">
        <path id="Path_879482" data-name="Path 879482" d="M73.387,295.2h-57.6l1.661-13.033a13.331,13.331,0,0,1,5.907-9.454l8.672-5.686,9.412,4.467a7.486,7.486,0,0,0,6.327.006l9.391-4.473,8.663,5.679a13.315,13.315,0,0,1,5.907,9.453Z" transform="translate(-15.785 -267.022)" fill="#b7bcce"/>
      </g>
      <g id="Group_1103112" data-name="Group 1103112" transform="translate(26.903 11.824)">
        <path id="Path_879483" data-name="Path 879483" d="M199.686,100.868v8.856a8.881,8.881,0,1,1-17.762,0v-8.848a18.639,18.639,0,0,1,17.762-.007Z" transform="translate(-181.925 -98.62)" fill="#ffd0c6"/>
      </g>
      <g id="Group_1103113" data-name="Group 1103113" transform="translate(5.785 0)">
        <path id="Path_879484" data-name="Path 879484" d="M65.775,60.037,64.113,47a14.494,14.494,0,0,0-6.439-10.3l-6.88-4.513.555-.262c3.025-1.434,5.531-5.751,3.957-9.078L48.122,7.64A13.572,13.572,0,0,0,35.987,0h-.406A13.574,13.574,0,0,0,23.444,7.646l-7.182,15.2c-.8,1.7-.335,4.124.484,5.717a8.226,8.226,0,0,0,4.035,3.624L13.894,36.7A14.512,14.512,0,0,0,7.455,47L5.794,60.037a1.2,1.2,0,0,0,1.189,1.351H30.943a1.2,1.2,0,1,0,0-2.4h-9.5V50.927a1.2,1.2,0,0,0-2.4,0v8.062H8.345L9.834,47.307a12.117,12.117,0,0,1,5.376-8.6l8.108-5.317,8.8,4.178a8.672,8.672,0,0,0,7.354.007l8.817-4.167L56.359,38.7a12.1,12.1,0,0,1,5.375,8.6l1.49,11.691h-10.7V50.927a1.2,1.2,0,0,0-2.4,0v8.062H41.6a1.2,1.2,0,1,0,0,2.4H64.586a1.2,1.2,0,0,0,1.189-1.351ZM28.1,14.815a17.6,17.6,0,0,1,15.364-.006v8.119a7.682,7.682,0,1,1-15.364,0V14.815ZM25.609,8.677A11.115,11.115,0,0,1,35.582,2.4h.406a11.112,11.112,0,0,1,9.969,6.273L49.3,15.743a21.268,21.268,0,0,0-13.477-5.117,21.223,21.223,0,0,0-13.553,5.118ZM19.1,27.849a5.2,5.2,0,0,1-.637-4.034A23.654,23.654,0,0,1,25.7,16.188v6.74a10.08,10.08,0,0,0,20.159,0V16.173a24.859,24.859,0,0,1,7.24,7.64,5.214,5.214,0,0,1-2.782,5.936L38.357,35.4a5.975,5.975,0,0,1-5.115-.005l-9.466-4.493C22.066,30.095,20.176,29.548,19.1,27.849Z" transform="translate(-5.785 0)"/>
        <path id="Path_879485" data-name="Path 879485" d="M223.468,128.424a1.2,1.2,0,0,0,1.2-1.2,1.72,1.72,0,0,1,.016-.236,1.685,1.685,0,0,1,1.669-1.448h.035a1.684,1.684,0,0,1,1.187,2.844,1.67,1.67,0,0,1-1.222.525,1.2,1.2,0,0,0-1.2,1.2v1.815a1.2,1.2,0,0,0,2.4,0v-.8a4.1,4.1,0,0,0,1.762-1.091,4.05,4.05,0,0,0,1.116-3.026,4.083,4.083,0,0,0-8.121-.352,4.147,4.147,0,0,0-.039.567,1.2,1.2,0,0,0,1.2,1.2Z" transform="translate(-196.313 -108.378)"/>
        <path id="Path_879486" data-name="Path 879486" d="M248.579,218.187a1.194,1.194,0,1,0-2.159,1.021A1.194,1.194,0,0,0,248.579,218.187Z" transform="translate(-217.433 -191.398)"/>
        <path id="Path_879487" data-name="Path 879487" d="M253.212,492.763a1.2,1.2,0,1,0-.649,1.565A1.209,1.209,0,0,0,253.212,492.763Z" transform="translate(-221.519 -433.032)"/>
      </g>
    </g>
  </g>
</svg>
