<svg xmlns="http://www.w3.org/2000/svg" width="100" height="100" viewBox="0 0 100 100">
  <g id="Group_1100965" data-name="Group 1100965" transform="translate(0.242)">
    <g id="Group_1098742" data-name="Group 1098742" transform="translate(0)">
      <rect id="Rectangle_400898" data-name="Rectangle 400898" width="100" height="100" rx="50" transform="translate(-0.242)" fill="#fff" opacity="0.859"/>
      <g id="Rectangle_400907" data-name="Rectangle 400907" transform="translate(-0.242)" fill="none" stroke="#6018ec" stroke-linecap="round" stroke-width="2" stroke-dasharray="7">
        <rect width="100" height="100" rx="50" stroke="none"/>
        <rect x="1" y="1" width="98" height="98" rx="49" fill="none"/>
      </g>
    </g>
    <g id="Group_1103144" data-name="Group 1103144" transform="translate(18.036 9.557)">
      <g id="Group_1103142" data-name="Group 1103142" transform="translate(0.929 10.884)">
        <g id="Group_1103139" data-name="Group 1103139" transform="translate(0 10.53)">
          <path id="Path_879802" data-name="Path 879802" d="M66.706,139.364H9.879A2.379,2.379,0,0,1,7.5,136.985V104.816a2.379,2.379,0,0,1,2.379-2.379H66.706a2.379,2.379,0,0,1,2.379,2.379v32.168A2.379,2.379,0,0,1,66.706,139.364Z" transform="translate(-7.5 -102.437)" fill="#f5f8f9"/>
          <path id="Path_879803" data-name="Path 879803" d="M445.838,102.437h-5.581a2.379,2.379,0,0,1,2.379,2.379v32.168a2.379,2.379,0,0,1-2.379,2.379h5.581a2.379,2.379,0,0,0,2.379-2.379V104.816A2.379,2.379,0,0,0,445.838,102.437Z" transform="translate(-386.633 -102.437)" fill="#e8edf2"/>
          <path id="Path_879804" data-name="Path 879804" d="M0,0H27.019V54.894H0Z" transform="translate(58.239 3.346) rotate(90)" fill="#fe99a0"/>
          <path id="Path_879805" data-name="Path 879805" d="M459.458,129.437h2.236v27.019h-2.236Z" transform="translate(-403.454 -126.091)" fill="#fd8087"/>
          <path id="Path_879806" data-name="Path 879806" d="M188.905,400.443h12.548l2.328,11.661h-17.2Z" transform="translate(-164.387 -363.516)" fill="#e8edf2"/>
          <path id="Path_879807" data-name="Path 879807" d="M280.326,400.443h-3.721l2.328,11.661h3.721Z" transform="translate(-243.259 -363.516)" fill="#d9e7ec"/>
        </g>
        <path id="Path_879808" data-name="Path 879808" d="M337.84,37.223H321.5l-3.237,4.818a.856.856,0,0,1-1.566-.477V19.586a2.13,2.13,0,0,1,2.13-2.13H337.84a2.13,2.13,0,0,1,2.13,2.13V35.094A2.13,2.13,0,0,1,337.84,37.223Z" transform="translate(-278.385 -17.456)" fill="#fd8087"/>
        <path id="Path_879809" data-name="Path 879809" d="M463.157,19.589V35.1a2.129,2.129,0,0,1-2.13,2.129H457.31a2.129,2.129,0,0,0,2.129-2.129V19.589a2.129,2.129,0,0,0-2.129-2.129h3.717a2.129,2.129,0,0,1,2.13,2.129Z" transform="translate(-401.572 -17.46)" fill="#fe646f"/>
        <g id="Group_1103140" data-name="Group 1103140" transform="translate(45.849 8.929)">
          <path id="Path_879810" data-name="Path 879810" d="M385.377,96.811h-6.669a1.2,1.2,0,0,1-1.2-1.2v-4.9a1.2,1.2,0,0,1,1.2-1.2h6.669a1.2,1.2,0,0,1,1.2,1.2v4.9A1.2,1.2,0,0,1,385.377,96.811Z" transform="translate(-377.512 -89.517)" fill="#fff0ad"/>
        </g>
        <path id="Path_879811" data-name="Path 879811" d="M177.6,172.167l1.426-1.755a3.322,3.322,0,0,0,.743-2.095v-2.089a4.175,4.175,0,0,0-1.316-3.043l-4.044-3.8a3.146,3.146,0,0,0-4.308,0l-4.044,3.8a4.175,4.175,0,0,0-1.316,3.043v2.089a3.323,3.323,0,0,0,.743,2.095l1.426,1.755-4.538,3.233a4.675,4.675,0,0,0-1.962,3.807v2.738H184.1v-2.738a4.675,4.675,0,0,0-1.962-3.807Z" transform="translate(-141.464 -141.051)" fill="#678d98"/>
        <path id="Path_879812" data-name="Path 879812" d="M231.421,224.279a3.477,3.477,0,0,1-3.477-3.477v-1.875H234.9V220.8A3.476,3.476,0,0,1,231.421,224.279Z" transform="translate(-200.628 -193.962)" fill="#ffcebf"/>
        <g id="Group_1103141" data-name="Group 1103141" transform="translate(0 13.876)">
          <path id="Path_879813" data-name="Path 879813" d="M25.691,145.514H9.535A2.031,2.031,0,0,1,7.85,142.35l8.078-12.015a2.031,2.031,0,0,1,3.371,0l8.078,12.015a2.031,2.031,0,0,1-1.686,3.164Z" transform="translate(-7.501 -129.437)" fill="#ffd15b"/>
        </g>
        <path id="Path_879814" data-name="Path 879814" d="M85.73,142.35l-8.078-12.015a2.031,2.031,0,0,0-3.371,0l-.174.258,7.9,11.756a2.031,2.031,0,0,1-1.686,3.164h3.718A2.031,2.031,0,0,0,85.73,142.35Z" transform="translate(-65.854 -115.561)" fill="#ffc344"/>
      </g>
      <g id="Group_1103143" data-name="Group 1103143" transform="translate(0 9.955)">
        <path id="Path_879815" data-name="Path 879815" d="M238.442,365.943h-3.62a.929.929,0,0,0,0,1.859h3.62a.929.929,0,0,0,0-1.859Z" transform="translate(-204.91 -321.831)"/>
        <path id="Path_879816" data-name="Path 879816" d="M60.385,9.955H41.373a3.062,3.062,0,0,0-3.059,3.059V23.831H4.275a.929.929,0,0,0-.929.929v8.172L1.859,35.144V23.794a1.451,1.451,0,0,1,1.45-1.45H34.892a.929.929,0,0,0,0-1.859H3.308A3.312,3.312,0,0,0,0,23.794V55.962a3.312,3.312,0,0,0,3.308,3.308H24.314l-1.957,9.8H18.7a.929.929,0,0,0,0,1.859H44.745a.929.929,0,0,0,0-1.859H41.086l-1.957-9.8H60.135a3.312,3.312,0,0,0,3.308-3.308V13.014a3.062,3.062,0,0,0-3.059-3.059ZM24.253,69.073l1.957-9.8H37.234l1.957,9.8Zm17.12-57.259H60.385a1.2,1.2,0,0,1,1.2,1.2V28.522a1.2,1.2,0,0,1-1.2,1.2H44.046a.929.929,0,0,0-.771.411l-3.1,4.617V13.014a1.2,1.2,0,0,1,1.2-1.2ZM42.637,50.85H20.807V49.041a3.752,3.752,0,0,1,1.572-3.05L26.3,43.2l3.409,3.166a2.97,2.97,0,0,0,4.026,0L37.144,43.2l3.921,2.794a3.752,3.752,0,0,1,1.572,3.05V50.85ZM37.771,39.659l-1.385,1.705L32.47,45a1.1,1.1,0,0,1-1.5,0l-3.916-3.637-1.385-1.705a2.4,2.4,0,0,1-.478-1l2.122-1.209v.276a4.406,4.406,0,1,0,8.812,0v-.276l2.122,1.209a2.4,2.4,0,0,1-.479,1Zm.536-3.108-2.649-1.509a.953.953,0,0,0-.46-.122H28.245a.95.95,0,0,0-.46.122l-2.649,1.509A3.611,3.611,0,0,1,26.16,33.7L30.2,29.9a2.22,2.22,0,0,1,3.036,0l4.044,3.8a3.622,3.622,0,0,1,1.023,2.855Zm-4.038.228v.946a2.547,2.547,0,0,1-5.094,0v-.946Zm4.045-4.665-3.8-3.572a4.082,4.082,0,0,0-5.581,0l-4.044,3.8a5.124,5.124,0,0,0-1.609,3.72v2.089a4.5,4.5,0,0,0,.952,2.68l.8.987L21.3,44.477a5.614,5.614,0,0,0-2.352,4.564V50.85H5.2V41.767H19.12a2.961,2.961,0,0,0,2.457-4.612L13.869,25.69H38.314v6.424ZM5.2,25.69H8.215L5.2,30.168ZM2.05,38.191l8.078-12.015a1.086,1.086,0,0,1,.909-.487h.01a1.086,1.086,0,0,1,.909.487l8.078,12.015a1.1,1.1,0,0,1-.914,1.717H2.964a1.1,1.1,0,0,1-.914-1.717ZM60.135,57.412H3.308a1.451,1.451,0,0,1-1.45-1.45V41.552a3.918,3.918,0,0,0,1.487.215V51.779a.929.929,0,0,0,.929.929H43.566a.929.929,0,0,0,.929-.929V49.041a5.614,5.614,0,0,0-2.352-4.564l-3.732-2.659.8-.987a4.509,4.509,0,0,0,.952-2.68V36.775a1.772,1.772,0,0,0,1.415-.787l2.961-4.406h13.7V50.85H47.913a.929.929,0,1,0,0,1.859H59.169a.929.929,0,0,0,.929-.929v-20.2a3.6,3.6,0,0,0,1.487-.246V55.962a1.451,1.451,0,0,1-1.45,1.45Z" transform="translate(0 -9.955)"/>
        <path id="Path_879817" data-name="Path 879817" d="M372.136,52.732h6.669a2.128,2.128,0,0,0,2.125-2.125V45.7a2.127,2.127,0,0,0-1.626-2.064V41.977a3.834,3.834,0,0,0-7.172-1.885.929.929,0,0,0,1.618.915,1.975,1.975,0,0,1,3.7.97v1.6h-5.309a2.128,2.128,0,0,0-2.125,2.125v4.9A2.128,2.128,0,0,0,372.136,52.732ZM371.87,45.7a.267.267,0,0,1,.267-.266h6.669a.267.267,0,0,1,.267.266v4.9a.267.267,0,0,1-.267.266h-6.669a.267.267,0,0,1-.267-.266Z" transform="translate(-324.162 -34.65)"/>
        <path id="Path_879818" data-name="Path 879818" d="M82.54,173.328a.929.929,0,0,0,.929-.929v-4.106a.929.929,0,0,0-1.859,0V172.4A.929.929,0,0,0,82.54,173.328Z" transform="translate(-71.498 -147.858)"/>
        <circle id="Ellipse_11698" data-name="Ellipse 11698" cx="0.929" cy="0.929" r="0.929" transform="translate(10.113 26.735)"/>
        <circle id="Ellipse_11699" data-name="Ellipse 11699" cx="0.929" cy="0.929" r="0.929" transform="translate(50.296 12.577)"/>
      </g>
    </g>
  </g>
</svg>
